<svg width="24" height="24" viewBox="0 0 24 24" fill="none" xmlns="http://www.w3.org/2000/svg">
<path d="M19.9809 5.16924C18.0703 3.63174 15.0478 3.37111 14.9184 3.36174C14.7178 3.34486 14.5266 3.45736 14.4441 3.64299C14.4366 3.65424 14.3709 3.80611 14.2978 4.04236C15.5616 4.25611 17.1141 4.68549 18.5184 5.55736C18.7434 5.69611 18.8128 5.99236 18.6741 6.21736C18.5822 6.36549 18.4266 6.44611 18.2653 6.44611C18.1791 6.44611 18.0909 6.42174 18.0122 6.37299C15.5972 4.87486 12.5822 4.79986 12.0009 4.79986C11.4197 4.79986 8.40281 4.87486 5.98969 6.37299C5.76469 6.51361 5.46844 6.44424 5.32969 6.21924C5.18906 5.99236 5.25844 5.69799 5.48344 5.55736C6.88781 4.68736 8.44031 4.25611 9.70406 4.04424C9.63094 3.80611 9.56531 3.65611 9.55969 3.64299C9.47531 3.45736 9.28594 3.34111 9.08344 3.36174C8.95406 3.37111 5.93156 3.63174 3.99469 5.18986C2.98406 6.12549 0.960938 11.593 0.960938 16.3199C0.960938 16.4042 0.983437 16.4849 1.02469 16.558C2.41969 19.0105 6.22781 19.6517 7.09594 19.6799C7.09969 19.6799 7.10531 19.6799 7.11094 19.6799C7.26469 19.6799 7.40906 19.6067 7.49906 19.483L8.37656 18.2755C6.00844 17.6642 4.79906 16.6255 4.72969 16.5636C4.53094 16.3892 4.51219 16.0855 4.68844 15.8867C4.86281 15.688 5.16656 15.6692 5.36531 15.8436C5.39344 15.8699 7.62094 17.7599 12.0009 17.7599C16.3884 17.7599 18.6159 15.8624 18.6384 15.8436C18.8372 15.6711 19.1391 15.688 19.3153 15.8886C19.4897 16.0874 19.4709 16.3892 19.2722 16.5636C19.2028 16.6255 17.9934 17.6642 15.6253 18.2755L16.5028 19.483C16.5928 19.6067 16.7372 19.6799 16.8909 19.6799C16.8966 19.6799 16.9022 19.6799 16.9059 19.6799C17.7741 19.6517 21.5822 19.0105 22.9772 16.558C23.0184 16.4849 23.0409 16.4042 23.0409 16.3199C23.0409 11.593 21.0178 6.12549 19.9809 5.16924ZM8.88094 14.3999C7.95281 14.3999 7.20094 13.5411 7.20094 12.4799C7.20094 11.4186 7.95281 10.5599 8.88094 10.5599C9.80906 10.5599 10.5609 11.4186 10.5609 12.4799C10.5609 13.5411 9.80906 14.3999 8.88094 14.3999ZM15.1209 14.3999C14.1928 14.3999 13.4409 13.5411 13.4409 12.4799C13.4409 11.4186 14.1928 10.5599 15.1209 10.5599C16.0491 10.5599 16.8009 11.4186 16.8009 12.4799C16.8009 13.5411 16.0491 14.3999 15.1209 14.3999Z" fill="black" fill-opacity="0.4"/>
</svg>
