<svg width="24" height="24" viewBox="0 0 24 24" fill="none" xmlns="http://www.w3.org/2000/svg">
<path d="M7.68141 1.44043C4.23981 1.44043 1.44141 4.23883 1.44141 7.68043V16.3204C1.44141 19.762 4.23981 22.5604 7.68141 22.5604H16.3214C19.763 22.5604 22.5614 19.762 22.5614 16.3204V7.68043C22.5614 4.23883 19.763 1.44043 16.3214 1.44043H7.68141ZM17.7614 5.28043C18.2894 5.28043 18.7214 5.71243 18.7214 6.24043C18.7214 6.76843 18.2894 7.20043 17.7614 7.20043C17.2334 7.20043 16.8014 6.76843 16.8014 6.24043C16.8014 5.71243 17.2334 5.28043 17.7614 5.28043ZM12.0014 6.72043C14.915 6.72043 17.2814 9.08683 17.2814 12.0004C17.2814 14.914 14.915 17.2804 12.0014 17.2804C9.08781 17.2804 6.72141 14.914 6.72141 12.0004C6.72141 9.08683 9.08781 6.72043 12.0014 6.72043ZM12.0014 7.68043C9.62061 7.68043 7.68141 9.61963 7.68141 12.0004C7.68141 14.3812 9.62061 16.3204 12.0014 16.3204C14.3822 16.3204 16.3214 14.3812 16.3214 12.0004C16.3214 9.61963 14.3822 7.68043 12.0014 7.68043Z" fill="black" fill-opacity="0.4"/>
</svg>
