<svg width="24" height="24" viewBox="0 0 24 24" fill="none" xmlns="http://www.w3.org/2000/svg">
<path d="M19.6819 1.91992H4.32187C2.99707 1.91992 1.92188 2.99512 1.92188 4.31992V19.6799C1.92188 21.0047 2.99707 22.0799 4.32187 22.0799H19.6819C21.0067 22.0799 22.0819 21.0047 22.0819 19.6799V4.31992C22.0819 2.99512 21.0067 1.91992 19.6819 1.91992ZM8.16187 9.59992V18.7199H5.28187V9.59992H8.16187ZM5.28187 6.94552C5.28187 6.27352 5.85787 5.75992 6.72187 5.75992C7.58587 5.75992 8.12827 6.27352 8.16187 6.94552C8.16187 7.61752 7.62427 8.15992 6.72187 8.15992C5.85787 8.15992 5.28187 7.61752 5.28187 6.94552ZM18.7219 18.7199H15.8419C15.8419 18.7199 15.8419 14.2751 15.8419 13.9199C15.8419 12.9599 15.3619 11.9999 14.1619 11.9807H14.1235C12.9619 11.9807 12.4819 12.9695 12.4819 13.9199C12.4819 14.3567 12.4819 18.7199 12.4819 18.7199H9.60187V9.59992H12.4819V10.8287C12.4819 10.8287 13.4083 9.59992 15.2707 9.59992C17.1763 9.59992 18.7219 10.9103 18.7219 13.5647V18.7199Z" fill="black" fill-opacity="0.4"/>
</svg>
