<svg width="24" height="24" viewBox="0 0 24 24" fill="none" xmlns="http://www.w3.org/2000/svg">
<path d="M19.6819 1.91992H4.32187C2.99851 1.91992 1.92188 2.99656 1.92188 4.31992V19.6799C1.92188 21.0033 2.99851 22.0799 4.32187 22.0799H19.6819C21.0052 22.0799 22.0819 21.0033 22.0819 19.6799V4.31992C22.0819 2.99656 21.0052 1.91992 19.6819 1.91992ZM17.7648 10.715C17.6558 10.725 17.5454 10.7318 17.4336 10.7318C16.1745 10.7318 15.0681 10.0842 14.4244 9.10552C14.4244 11.673 14.4244 14.5943 14.4244 14.6433C14.4244 16.9036 12.5918 18.7362 10.3315 18.7362C8.07116 18.7362 6.23851 16.9036 6.23851 14.6433C6.23851 12.383 8.07116 10.5503 10.3315 10.5503C10.4169 10.5503 10.5004 10.558 10.5844 10.5633V12.5802C10.5004 12.5702 10.4179 12.5548 10.3315 12.5548C9.17756 12.5548 8.24251 13.4898 8.24251 14.6438C8.24251 15.7977 9.17756 16.7327 10.3315 16.7327C11.4854 16.7327 12.5044 15.8236 12.5044 14.6697C12.5044 14.6241 12.5246 5.26456 12.5246 5.26456H14.4523C14.6337 6.98824 16.0252 8.34856 17.7648 8.47336V10.715Z" fill="black" fill-opacity="0.4"/>
</svg>
