<svg width="24" height="24" viewBox="0 0 24 24" fill="none" xmlns="http://www.w3.org/2000/svg">
<path d="M5.28187 1.91992C3.42619 1.91992 1.92188 3.42424 1.92188 5.27992V18.7199C1.92188 20.5756 3.42619 22.0799 5.28187 22.0799H18.7219C20.5776 22.0799 22.0819 20.5756 22.0819 18.7199V5.27992C22.0819 3.42424 20.5776 1.91992 18.7219 1.91992H5.28187ZM6.28313 6.23992H10.0931L12.7987 10.0846L16.0819 6.23992H17.2819L13.3406 10.8543L18.2006 17.7599H14.3916L11.2519 13.2993L7.44187 17.7599H6.24187L10.71 12.5296L6.28313 6.23992ZM8.12062 7.19992L14.8922 16.7999H16.3631L9.59156 7.19992H8.12062Z" fill="black" fill-opacity="0.4"/>
</svg>
