<svg width="54" height="54" viewBox="0 0 54 54" fill="none" xmlns="http://www.w3.org/2000/svg">
<g clip-path="url(#clip0_1263_5665)">
<rect width="54" height="54" rx="27" fill="#F6F6F6"/>
<path d="M27 31C33.2132 31 38.25 25.9632 38.25 19.75C38.25 13.5368 33.2132 8.5 27 8.5C20.7868 8.5 15.75 13.5368 15.75 19.75C15.75 25.9632 20.7868 31 27 31Z" fill="#000929" fill-opacity="0.2"/>
<path d="M26.9994 36.625C15.7269 36.625 6.54688 44.185 6.54688 53.5C6.54688 54.13 7.04187 54.625 7.67188 54.625H46.3269C46.9569 54.625 47.4519 54.13 47.4519 53.5C47.4519 44.185 38.2719 36.625 26.9994 36.625Z" fill="#000929" fill-opacity="0.2"/>
</g>
<defs>
<clipPath id="clip0_1263_5665">
<rect width="54" height="54" rx="27" fill="white"/>
</clipPath>
</defs>
</svg>
