<svg width="24" height="24" viewBox="0 0 24 24" fill="none" xmlns="http://www.w3.org/2000/svg">
<g clip-path="url(#clip0_1530_5701)">
<path d="M12.0009 0.959961C5.91358 0.959961 0.960938 5.9126 0.960938 12C0.960938 18.0873 5.91358 23.04 12.0009 23.04C18.0888 23.04 23.0409 18.0873 23.0409 12C23.0409 5.9126 18.0888 0.959961 12.0009 0.959961ZM16.788 14.1768C17.8617 15.13 18.0849 15.4704 18.1214 15.5284C18.5664 16.234 17.628 16.32 17.628 16.32H15.6504C15.6504 16.32 15.1689 16.3252 14.7576 16.0526C14.087 15.6134 13.3848 14.7619 12.8913 14.9097C12.4771 15.0336 12.4809 15.5932 12.4809 16.0718C12.4809 16.2432 12.3336 16.32 12.0009 16.32C11.6683 16.32 11.5301 16.32 11.3827 16.32C10.2993 16.32 9.12382 15.9552 7.95118 14.7297C6.2923 12.9974 4.83742 9.5078 4.83742 9.5078C4.83742 9.5078 4.7515 9.33212 4.8451 9.22508C4.95118 9.10508 5.23966 9.12044 5.23966 9.12044L7.15726 9.11996C7.15726 9.11996 7.33774 9.15404 7.46734 9.24524C7.57438 9.32012 7.6339 9.46316 7.6339 9.46316C7.6339 9.46316 7.95598 10.5268 8.36638 11.2051C9.16798 12.5289 9.54094 12.5625 9.8131 12.42C10.2105 12.2136 10.0809 10.8062 10.0809 10.8062C10.0809 10.8062 10.0987 10.2019 9.89134 9.9326C9.7315 9.72428 9.42574 9.6134 9.2923 9.59612C9.1843 9.5822 9.36478 9.39308 9.5947 9.28508C9.9019 9.14828 10.32 9.11324 11.0409 9.11996C11.6021 9.12524 11.7638 9.15884 11.9827 9.20924C12.6446 9.36188 12.4809 9.7646 12.4809 11.1787C12.4809 11.6318 12.4185 12.2688 12.7603 12.48C12.9077 12.5712 13.4126 12.6825 14.3112 11.2233C14.7379 10.5312 15.0773 9.383 15.0773 9.383C15.0773 9.383 15.1473 9.25676 15.2563 9.19436C15.3677 9.13052 15.3643 9.13196 15.5169 9.13196C15.6696 9.13196 17.2003 9.11996 17.5363 9.11996C17.8718 9.11996 18.1867 9.11612 18.2409 9.31292C18.3187 9.59564 17.9933 10.5643 17.1686 11.6155C15.8136 13.3406 15.6633 13.1793 16.788 14.1768Z" fill="black" fill-opacity="0.4"/>
</g>
<defs>
<clipPath id="clip0_1530_5701">
<rect width="24" height="24" fill="white"/>
</clipPath>
</defs>
</svg>
