<svg width="24" height="24" viewBox="0 0 24 24" fill="none" xmlns="http://www.w3.org/2000/svg">
<path d="M21.5527 6.96031C21.3614 5.90469 20.4502 5.13594 19.3927 4.89594C17.8102 4.56031 14.8814 4.32031 11.7127 4.32031C8.54578 4.32031 5.57016 4.56031 3.98578 4.89594C2.93016 5.13594 2.01703 5.85594 1.82578 6.96031C1.63266 8.16031 1.44141 9.84031 1.44141 12.0003C1.44141 14.1603 1.63266 15.8403 1.87266 17.0403C2.06578 18.0959 2.97703 18.8647 4.03266 19.1047C5.71266 19.4403 8.59266 19.6803 11.7614 19.6803C14.9302 19.6803 17.8102 19.4403 19.4902 19.1047C20.5458 18.8647 21.457 18.1447 21.6502 17.0403C21.8414 15.8403 22.0814 14.1116 22.1302 12.0003C22.0327 9.84031 21.7927 8.16031 21.5527 6.96031ZM9.12141 15.3603V8.64031L14.977 12.0003L9.12141 15.3603Z" fill="black" fill-opacity="0.4"/>
</svg>
